<svg width="20" height="20" viewBox="0 0 20 20" fill="none" xmlns="http://www.w3.org/2000/svg">
<g id="icon/24/clock">
<path id="timer" fill-rule="evenodd" clip-rule="evenodd" d="M3.33331 10C3.33331 13.6819 6.31808 16.6667 9.99998 16.6667C13.6819 16.6667 16.6666 13.6819 16.6666 10C16.6666 6.31811 13.6819 3.33334 9.99998 3.33334C6.31808 3.33334 3.33331 6.31811 3.33331 10ZM10.0352 5.92594H9.97258C9.77905 5.92594 9.61815 6.07494 9.6033 6.2679L9.28272 10.4356C9.26909 10.6127 9.38315 10.7745 9.55454 10.8213L12.976 11.7544C13.0003 11.761 13.0253 11.7644 13.0504 11.7644C13.2067 11.7644 13.3333 11.6377 13.3333 11.4815V11.3261C13.3333 11.1931 13.2621 11.0704 13.1467 11.0045L10.7407 9.62964L10.4037 6.25945C10.3848 6.07012 10.2254 5.92594 10.0352 5.92594Z" fill="#EEA734"/>
</g>
</svg>
